<?xml version="1.0" encoding="UTF-8"?>
<svg width="114px" height="48px" viewBox="0 0 114 48" version="1.1" xmlns="http://www.w3.org/2000/svg" xmlns:xlink="http://www.w3.org/1999/xlink">
    <!-- Generator: Sketch 53.1 (72631) - https://sketchapp.com -->
    <title>logo_serasa-experian_color</title>
    <desc>Created with Sketch.</desc>
    <defs>
        <polygon id="path-1" points="0.0951982609 0.0854794521 8.06660696 0.0854794521 8.06660696 8.01662466 0.0951982609 8.01662466"></polygon>
        <polygon id="path-3" points="0 0.0952767123 8.96763652 0.0952767123 8.96763652 9.01768767 0 9.01768767"></polygon>
        <polygon id="path-5" points="0.18154087 0.0417863014 12.6039061 0.0417863014 12.6039061 17.0958904 0.18154087 17.0958904"></polygon>
        <polygon id="path-7" points="0.107093913 0.206991781 2.08801739 0.206991781 2.08801739 2.4518137 0.107093913 2.4518137"></polygon>
    </defs>
    <g id="Desktop" stroke="none" stroke-width="1" fill="none" fill-rule="evenodd">
        <g id="desktop_home-serasa_empresas" transform="translate(-112.000000, -70.000000)">
            <g id="logo_serasa-experian_color" transform="translate(112.000000, 70.000000)">
                <g id="Group-3" transform="translate(10.573913, 0.243288)">
                    <mask id="mask-2" fill="white">
                        <use xlink:href="#path-1"></use>
                    </mask>
                    <g id="Clip-2"></g>
                    <path d="M6.00105913,8.01662466 L2.16173739,8.01662466 C1.01942435,8.01662466 0.0951982609,7.09574795 0.0951982609,5.96084384 L0.0951982609,2.14056986 C0.0951982609,1.00632329 1.01942435,0.0854465753 2.16173739,0.0854465753 L6.00105913,0.0854465753 C7.14205043,0.0854465753 8.06660696,1.00632329 8.06660696,2.14056986 L8.06660696,5.96084384 C8.06660696,7.09574795 7.14205043,8.01662466 6.00105913,8.01662466" id="Fill-1" fill="#0E6EB7" mask="url(#mask-2)"></path>
                </g>
                <g id="Group-6" transform="translate(0.000000, 7.804932)">
                    <mask id="mask-4" fill="white">
                        <use xlink:href="#path-3"></use>
                    </mask>
                    <g id="Clip-5"></g>
                    <path d="M6.64302783,9.01768767 L2.32391478,9.01768767 C1.04083652,9.01768767 -3.30434783e-05,7.98503014 -3.30434783e-05,6.70579726 L-3.30434783e-05,2.40782466 C-3.30434783e-05,1.13155068 1.04083652,0.0952767123 2.32391478,0.0952767123 L6.64302783,0.0952767123 C7.92676696,0.0952767123 8.96763652,1.13155068 8.96763652,2.40782466 L8.96763652,6.70579726 C8.96763652,7.98503014 7.92676696,9.01768767 6.64302783,9.01768767" id="Fill-4" fill="#72217B" mask="url(#mask-4)"></path>
                </g>
                <path d="M6.2317687,25.7423342 L3.59390783,25.7423342 C2.80978609,25.7423342 2.17237739,25.1107726 2.17237739,24.3286356 L2.17237739,21.7054027 C2.17237739,20.9226082 2.80978609,20.2900603 3.59390783,20.2900603 L6.2317687,20.2900603 C7.01622087,20.2900603 7.65263826,20.9226082 7.65263826,21.7054027 L7.65263826,24.3286356 C7.65263826,25.1107726 7.01622087,25.7423342 6.2317687,25.7423342" id="Fill-7" fill="#B12384"></path>
                <path d="M13.3146713,34.0358466 L10.195367,34.0358466 C9.26849739,34.0358466 8.51675826,33.289874 8.51675826,32.3657096 L8.51675826,29.2621479 C8.51675826,28.3379836 9.26849739,27.592011 10.195367,27.592011 L13.3146713,27.592011 C14.2418713,27.592011 14.9936104,28.3379836 14.9936104,29.2621479 L14.9936104,32.3657096 C14.9936104,33.289874 14.2418713,34.0358466 13.3146713,34.0358466" id="Fill-9" fill="#D82B80"></path>
                <path d="M24.7454678,9.82283836 L22.5844243,9.82283836 C21.9420591,9.82283836 21.4222852,9.30371507 21.4222852,8.66689315 L21.4222852,6.51971507 C21.4222852,5.88059178 21.9420591,5.36146849 22.5844243,5.36146849 L24.7454678,5.36146849 C25.3868417,5.36146849 25.9062852,5.88059178 25.9062852,6.51971507 L25.9062852,8.66689315 C25.9062852,9.30371507 25.3868417,9.82283836 24.7454678,9.82283836" id="Fill-11" fill="#D82B80"></path>
                <path d="M81.0050626,29.4514192 C81.692367,29.4514192 82.2484887,28.8981041 82.2484887,28.2129534 C82.2484887,27.528789 81.692367,26.9728438 81.0050626,26.9728438 C80.3177583,26.9728438 79.75668,27.528789 79.75668,28.2129534 C79.75668,28.8981041 80.3177583,29.4514192 81.0050626,29.4514192" id="Fill-13" fill="#004691"></path>
                <path d="M35.5455965,42.6690411 C35.352953,42.9563836 35.0400313,43.1000548 34.7029878,43.1000548 C34.5106748,43.1000548 34.2935791,43.0523836 34.1250574,42.9563836 C33.8603791,42.7887123 33.6674052,42.4293699 33.6674052,42.0703562 C33.6674052,41.9023562 33.7159791,41.7346849 33.8118052,41.5910137 L36.7014574,37.0645479 L33.8118052,32.5370959 C33.7159791,32.3934247 33.6674052,32.2017534 33.6674052,32.0340822 C33.6674052,31.6987397 33.8365878,31.3393973 34.1495096,31.1713973 C34.3177009,31.0760548 34.486553,31.0280548 34.6788661,31.0280548 C35.0159096,31.0280548 35.352953,31.1713973 35.5455965,31.4593973 L37.9049009,35.1718356 L40.2876661,31.4593973 C40.48064,31.1713973 40.8180139,31.0280548 41.1550574,31.0280548 C41.3477009,31.0280548 41.5158922,31.0760548 41.6844139,31.1713973 C41.9973357,31.3393973 42.165527,31.6987397 42.165527,32.0340822 C42.165527,32.2017534 42.1172835,32.3934247 42.0214574,32.5370959 L39.1324661,37.0645479 L42.0214574,41.5910137 C42.1172835,41.7346849 42.165527,41.9023562 42.165527,42.0703562 C42.165527,42.4293699 41.9732139,42.7887123 41.7082052,42.9563836 C41.5403443,43.0523836 41.3232487,43.1000548 41.1306052,43.1000548 C40.7938922,43.1000548 40.48064,42.9563836 40.2876661,42.6690411 L37.9049009,38.980274 L35.5455965,42.6690411 Z" id="Fill-15" fill="#004691"></path>
                <g id="Group-19" transform="translate(43.617391, 30.818630)">
                    <mask id="mask-6" fill="white">
                        <use xlink:href="#path-5"></use>
                    </mask>
                    <g id="Clip-18"></g>
                    <path d="M6.36860174,2.10249863 C4.05754087,2.10249863 2.22792348,3.92222466 2.22792348,6.24595068 C2.22792348,8.54534795 4.05754087,10.3654027 6.36860174,10.3654027 C8.70444522,10.3654027 10.5334017,8.54534795 10.5334017,6.24595068 C10.5334017,3.92222466 8.70444522,2.10249863 6.36860174,2.10249863 L6.36860174,2.10249863 Z M2.22792348,1.62249863 C3.3110887,0.640471233 4.77954087,0.0417863014 6.36860174,0.0417863014 C9.83552348,0.0417863014 12.6039061,2.79685479 12.6039061,6.24595068 C12.6039061,9.64737534 9.83552348,12.4014575 6.36860174,12.4014575 C4.77954087,12.4014575 3.3110887,11.8024438 2.22792348,10.8207452 L2.22792348,16.1138959 C2.22792348,16.6409096 1.74648,17.0959233 1.19300174,17.0959233 C0.687106087,17.0959233 0.18154087,16.6409096 0.18154087,16.1138959 L0.18154087,1.11948493 C0.18154087,0.593128767 0.687106087,0.137786301 1.19300174,0.137786301 C1.74648,0.137786301 2.22792348,0.593128767 2.22792348,1.11948493 L2.22792348,1.62249863 Z" id="Fill-17" fill="#004691" mask="url(#mask-6)"></path>
                </g>
                <path d="M73.8466557,35.9386192 L73.8466557,42.1417973 C73.8466557,42.668811 73.34076,43.1238247 72.8351948,43.1238247 C72.2813861,43.1238247 71.800273,42.668811 71.800273,42.1417973 L71.800273,31.9385096 C71.800273,31.4111671 72.2813861,30.9561534 72.8351948,30.9561534 C73.3172991,30.9561534 73.8222035,31.3871671 73.8466557,31.8905096 C74.6889339,31.2438247 75.7724296,30.8841534 76.9514209,30.8604822 C77.6017165,30.8604822 78.08316,31.3634959 78.08316,31.8661808 C78.08316,32.4171945 77.5779252,32.920537 76.9514209,32.920537 C75.3392296,32.9682082 73.8466557,33.5432219 73.8466557,35.9386192" id="Fill-20" fill="#004691"></path>
                <path d="M81.0194365,30.9562192 C80.4662887,30.9562192 79.9848452,31.4112329 79.9848452,31.9382466 L79.9848452,42.141863 C79.9848452,42.6688767 80.4662887,43.1238904 81.0194365,43.1238904 C81.5253322,43.1238904 82.030567,42.6688767 82.030567,42.141863 L82.030567,31.9382466 C82.030567,31.4112329 81.5253322,30.9562192 81.0194365,30.9562192" id="Fill-22" fill="#004691"></path>
                <path d="M89.9506922,41.1600658 C92.2620835,41.1600658 94.0926922,39.3396822 94.0926922,37.0162849 C94.0926922,34.7168877 92.2620835,32.8968329 89.9506922,32.8968329 C87.6155096,32.8968329 85.786553,34.7168877 85.786553,37.0162849 C85.786553,39.3396822 87.6155096,41.1600658 89.9506922,41.1600658 L89.9506922,41.1600658 Z M94.0926922,31.9381479 C94.0926922,31.4111342 94.5731443,30.9561205 95.1272835,30.9561205 C95.6331791,30.9561205 96.1387443,31.4111342 96.1387443,31.9381479 L96.1387443,42.1420932 C96.1387443,42.6687781 95.6331791,43.1237918 95.1272835,43.1237918 C94.5731443,43.1237918 94.0926922,42.6687781 94.0926922,42.1420932 L94.0926922,41.6387507 C92.9854052,42.6207781 91.539753,43.2197918 89.9506922,43.2197918 C86.4844313,43.2197918 83.7163791,40.4657096 83.7163791,37.0162849 C83.7163791,33.6155178 86.4844313,30.8607781 89.9506922,30.8607781 C91.539753,30.8607781 92.9854052,31.459463 94.0926922,32.4414904 L94.0926922,31.9381479 Z" id="Fill-24" fill="#004691"></path>
                <path d="M106.562937,36.0580603 C106.562937,34.3580055 105.070363,32.8726356 103.361024,32.8726356 C101.700259,32.8726356 100.158781,33.5433205 100.158781,35.938389 L100.158781,42.1422247 C100.158781,42.6689096 99.6535461,43.1239233 99.1466591,43.1239233 C98.5928504,43.1239233 98.1123983,42.6689096 98.1123983,42.1422247 L98.1123983,31.9382795 C98.1123983,31.4112658 98.5928504,30.9562521 99.1466591,30.9562521 C99.6294243,30.9562521 100.13499,31.3872658 100.158781,31.8902795 C101.025842,31.2192658 102.133129,30.8605808 103.335911,30.8605808 C106.129077,30.8605808 108.608659,33.0406356 108.608659,35.7707178 L108.608659,42.1422247 C108.608659,42.6689096 108.104416,43.1239233 107.59819,43.1239233 C107.04405,43.1239233 106.562937,42.6689096 106.562937,42.1422247 L106.562937,36.0580603 Z" id="Fill-26" fill="#004691"></path>
                <path d="M26.9118643,32.8968986 C28.7788209,32.8968986 30.3295513,34.0886795 30.8589078,35.749611 L22.9400383,35.749611 C23.4693948,34.0886795 25.0224383,32.8968986 26.9118643,32.8968986 M33.0985948,36.681337 C33.0503513,33.5435836 30.2343861,30.8608438 26.9118643,30.8608438 C23.4449426,30.8608438 20.6768904,33.6155836 20.6768904,37.0163507 C20.6768904,40.4657753 23.4449426,43.2198575 26.9118643,43.2198575 C28.5726296,43.2198575 30.1141078,42.5731726 31.2210643,41.4718027 C31.4374991,41.2801315 31.5822296,40.9921315 31.5822296,40.704789 C31.5822296,40.1541041 31.1007861,39.6750904 30.5469774,39.6750904 C30.2343861,39.6750904 29.9449252,39.8667616 29.7284904,40.0824329 C29.0299513,40.824789 27.99536,41.1601315 26.9118643,41.1601315 C24.8416904,41.1601315 23.1577948,39.7487342 22.7953078,37.7850082 L32.0877948,37.7850082 C32.0947339,37.7850082 32.1006817,37.7827068 32.1079513,37.7827068 L32.1360383,37.7827068 C32.1532209,37.781063 32.170073,37.7751452 32.1875861,37.7721863 C32.2236035,37.7672548 32.2586296,37.7619945 32.2929948,37.7518027 C32.7318122,37.6344329 33.0985948,37.2172274 33.0985948,36.681337" id="Fill-28" fill="#004691"></path>
                <path d="M63.88104,32.8968986 C65.7476661,32.8968986 67.2990574,34.0886795 67.8284139,35.749611 L59.908553,35.749611 C60.4379096,34.0886795 61.990953,32.8968986 63.88104,32.8968986 M70.0681009,36.681337 C70.0191965,33.5435836 67.2032313,30.8608438 63.88104,30.8608438 C60.4141183,30.8608438 57.6444139,33.6155836 57.6444139,37.0163507 C57.6444139,40.4657753 60.4141183,43.2198575 63.88104,43.2198575 C65.5418052,43.2198575 67.082953,42.5731726 68.1895791,41.4718027 C68.4066748,41.2801315 68.5507443,40.9921315 68.5507443,40.704789 C68.5507443,40.1541041 68.0696313,39.6750904 67.5158226,39.6750904 C67.2032313,39.6750904 66.9131096,39.8667616 66.6970052,40.0824329 C65.9987965,40.824789 64.9635443,41.1601315 63.88104,41.1601315 C61.8108661,41.1601315 60.1263096,39.7487342 59.764153,37.7850082 L69.0407791,37.7850082 C69.0470574,37.7850082 69.0539965,37.7827068 69.0602748,37.7827068 L69.1048835,37.7827068 C69.1323096,37.7804055 69.1597357,37.7715288 69.1871617,37.7662685 C69.2007096,37.7629808 69.2152487,37.7619945 69.2287965,37.7577205 C69.682153,37.6541589 70.0681009,37.2300493 70.0681009,36.681337" id="Fill-30" fill="#004691"></path>
                <path d="M22.9403357,17.5556055 C23.4696922,15.8943452 25.0227357,14.7025644 26.9128226,14.7025644 C28.7787878,14.7025644 30.33084,15.8943452 30.860527,17.5556055 L22.9403357,17.5556055 Z M26.9128226,12.6665096 C23.4455704,12.6665096 20.6761965,15.4209205 20.6761965,18.8220164 C20.6761965,22.2724274 23.4455704,25.0258521 26.9128226,25.0258521 C28.5732574,25.0258521 30.1144052,24.3801534 31.2216922,23.278126 C31.4384574,23.0867836 31.582527,22.7991123 31.582527,22.5117699 C31.582527,21.9610849 31.1014139,21.4814137 30.5479357,21.4814137 C30.234353,21.4814137 29.9452226,21.6734137 29.7287878,21.8894137 C29.0305791,22.6314411 27.995327,22.9667836 26.9128226,22.9667836 C24.8426487,22.9667836 23.1577617,21.5553863 22.7959357,19.590674 L32.0728922,19.590674 C32.0791704,19.590674 32.0857791,19.5883726 32.0923878,19.5883726 L32.1366661,19.5883726 C32.1644226,19.5860712 32.1915183,19.5775233 32.2189443,19.572263 C32.2328226,19.5689753 32.2473617,19.567989 32.2609096,19.5637151 C32.7139357,19.4594959 33.0998835,19.0357151 33.0998835,18.4873315 C33.0513096,15.3492493 30.234353,12.6665096 26.9128226,12.6665096 L26.9128226,12.6665096 Z" id="Fill-32" fill="#004691"></path>
                <path d="M46.8019896,22.9666192 C44.466807,22.9666192 42.6378504,21.1455781 42.6378504,18.8218521 C42.6378504,16.5227836 44.466807,14.7024 46.8019896,14.7024 C49.1133809,14.7024 50.9439896,16.5227836 50.9439896,18.8218521 C50.9439896,21.1455781 49.1133809,22.9666192 46.8019896,22.9666192 M51.9785809,12.7620164 C51.4244417,12.7620164 50.9439896,13.2170301 50.9439896,13.7440438 L50.9439896,14.2473863 C49.8367026,13.2653589 48.3910504,12.666674 46.8019896,12.666674 C43.3357287,12.666674 40.5676765,15.4210849 40.5676765,18.8218521 C40.5676765,22.2725918 43.3357287,25.0263452 46.8019896,25.0263452 C48.3910504,25.0263452 49.8367026,24.4276603 50.9439896,23.4453041 L50.9439896,23.9489753 C50.9439896,24.4753315 51.4244417,24.9303452 51.9785809,24.9303452 C52.4844765,24.9303452 52.9900417,24.4753315 52.9900417,23.9489753 L52.9900417,13.7440438 C52.9900417,13.2170301 52.4844765,12.7620164 51.9785809,12.7620164" id="Fill-34" fill="#004691"></path>
                <path d="M69.5510035,22.9666192 C67.2158209,22.9666192 65.3868643,21.1455781 65.3868643,18.8218521 C65.3868643,16.5227836 67.2158209,14.7024 69.5510035,14.7024 C71.8623948,14.7024 73.6923426,16.5227836 73.6923426,18.8218521 C73.6923426,21.1455781 71.8623948,22.9666192 69.5510035,22.9666192 M74.7272643,12.7620164 C74.1731252,12.7620164 73.6923426,13.2170301 73.6923426,13.7440438 L73.6923426,14.2473863 C72.5857165,13.2653589 71.1400643,12.666674 69.5510035,12.666674 C66.0847426,12.666674 63.3166904,15.4210849 63.3166904,18.8218521 C63.3166904,22.2725918 66.0847426,25.0263452 69.5510035,25.0263452 C71.1400643,25.0263452 72.5857165,24.4276603 73.6923426,23.4453041 L73.6923426,23.9489753 C73.6923426,24.4753315 74.1731252,24.9303452 74.7272643,24.9303452 C75.23316,24.9303452 75.7387252,24.4753315 75.7387252,23.9489753 L75.7387252,13.7440438 C75.7387252,13.2170301 75.23316,12.7620164 74.7272643,12.7620164" id="Fill-36" fill="#004691"></path>
                <path d="M39.8843374,12.6664767 C38.7050157,12.6898192 37.62152,13.0498192 36.7792417,13.6961753 C36.7544591,13.1931616 36.2498852,12.7618192 35.7677809,12.7618192 C35.2136417,12.7618192 34.7321983,13.2168329 34.7321983,13.7441753 L34.7321983,23.9491068 C34.7321983,24.4757918 35.2136417,24.9301479 35.7677809,24.9301479 C36.2730157,24.9301479 36.7792417,24.4757918 36.7792417,23.9491068 L36.7792417,17.7442849 C36.7792417,15.3492164 38.2714852,14.773874 39.8843374,14.7265315 C40.5105113,14.7265315 41.0157461,14.2228603 41.0157461,13.6721753 C41.0157461,13.1691616 40.534633,12.6664767 39.8843374,12.6664767" id="Fill-38" fill="#004691"></path>
                <path d="M17.5297965,18.5748164 C16.7678139,18.158926 15.9846835,17.7765699 15.227327,17.3541041 C14.9200226,17.1828164 14.6213096,16.9737205 14.376127,16.7251726 C13.7942313,16.1370082 13.8903878,15.2739945 14.5691009,14.8942685 C14.7762835,14.7792 15.0247704,14.7101589 15.2610313,14.6782685 C15.9658487,14.5832548 16.6092052,14.7703233 17.2254661,15.1198027 C17.5337617,15.2947068 17.8817096,15.4242411 18.2286661,15.4975562 C18.591153,15.5735014 18.9093617,15.4071452 19.1340574,15.1066521 C19.3534661,14.8114192 19.3534661,14.4773918 19.1700748,14.1811726 C19.0233617,13.943474 18.8284052,13.7153096 18.6047009,13.5473096 C17.7449096,12.9048986 16.751953,12.6359671 15.6872922,12.605063 C14.9058139,12.6185425 14.1616748,12.7783233 13.4727183,13.1600219 C11.9880748,13.9835836 11.4084922,15.5797479 12.0465617,17.1338301 C12.3581617,17.8899945 12.9265096,18.4285151 13.6276922,18.8194192 C14.2452748,19.1649534 14.8889617,19.4638027 15.5220748,19.7827068 C16.0511009,20.0496658 16.5675704,20.3379945 16.982927,20.7716384 C17.496753,21.3048986 17.6048052,21.9150904 17.26644,22.415474 C17.013327,22.7905973 16.6290313,22.9520219 16.1978139,23.0220493 C15.3476052,23.1584877 14.5757096,22.944789 13.851727,22.501611 C13.600927,22.3474192 13.34484,22.1886247 13.0715704,22.0860493 C12.2877791,21.7904877 11.561153,22.3605699 11.7095183,23.1417205 C11.7762661,23.4882411 11.9966661,23.7456658 12.2570487,23.9692274 C13.6164574,25.1383233 16.0828226,25.4305973 17.7164922,24.6178849 C19.4737443,23.7427068 20.0863704,21.8736658 19.18164,20.1335014 C18.814527,19.425337 18.2134661,18.9505973 17.5297965,18.5748164" id="Fill-40" fill="#004691"></path>
                <path d="M60.3241739,18.5748164 C59.5621913,18.158926 58.7790609,17.7765699 58.0217043,17.3541041 C57.7144,17.1828164 57.415687,16.9737205 57.1705043,16.7251726 C56.5886087,16.1370082 56.6847652,15.2739945 57.3634783,14.8942685 C57.5706609,14.7792 57.8191478,14.7101589 58.0554087,14.6782685 C58.7602261,14.5832548 59.4035826,14.7703233 60.0198435,15.1198027 C60.3281391,15.2947068 60.676087,15.4242411 61.0230435,15.4975562 C61.3855304,15.5735014 61.7037391,15.4071452 61.9284348,15.1066521 C62.1478435,14.8114192 62.1478435,14.4773918 61.9644522,14.1811726 C61.8177391,13.943474 61.6227826,13.7153096 61.3990783,13.5473096 C60.539287,12.9048986 59.5463304,12.6359671 58.4816696,12.605063 C57.7001913,12.6185425 56.9560522,12.7783233 56.2670957,13.1600219 C54.7824522,13.9835836 54.2028696,15.5797479 54.8409391,17.1338301 C55.1525391,17.8899945 55.720887,18.4285151 56.4220696,18.8194192 C57.0396522,19.1649534 57.6833391,19.4638027 58.3164522,19.7827068 C58.8454783,20.0496658 59.3619478,20.3379945 59.7773043,20.7716384 C60.2911304,21.3048986 60.3991826,21.9150904 60.0608174,22.415474 C59.8077043,22.7905973 59.4230783,22.9520219 58.9921913,23.0220493 C58.1419826,23.1584877 57.370087,22.944789 56.6461043,22.501611 C56.3953043,22.3474192 56.1392174,22.1886247 55.8659478,22.0860493 C55.0821565,21.7904877 54.3555304,22.3605699 54.5038957,23.1417205 C54.5706435,23.4882411 54.7910435,23.7456658 55.0514261,23.9692274 C56.4108348,25.1383233 58.8772,25.4305973 60.5108696,24.6178849 C62.2681217,23.7427068 62.8807478,21.8736658 61.9760174,20.1335014 C61.6089043,19.425337 61.0078435,18.9505973 60.3241739,18.5748164" id="Fill-42" fill="#004691"></path>
                <path d="M110.77793,43.1307288 C110.684087,43.1307288 110.608087,43.0574137 110.608087,42.9670027 L110.608087,41.2383452 L110.219826,41.2383452 C110.128626,41.2383452 110.05527,41.1624 110.05527,41.0690301 C110.05527,40.9723726 110.125983,40.8997151 110.219826,40.8997151 L111.341983,40.8997151 C111.435826,40.8997151 111.506539,40.9723726 111.506539,41.0690301 C111.506539,41.1624 111.432852,41.2383452 111.341983,41.2383452 L110.948435,41.2383452 L110.948435,42.9670027 C110.948435,43.0600438 110.875078,43.1307288 110.77793,43.1307288" id="Fill-44" fill="#004691"></path>
                <g id="Group-48" transform="translate(111.686957, 40.681644)">
                    <mask id="mask-8" fill="white">
                        <use xlink:href="#path-7"></use>
                    </mask>
                    <g id="Clip-47"></g>
                    <path d="M1.09905913,2.4518137 C1.00554609,2.4518137 0.951354783,2.38408767 0.930537391,2.32063562 L0.447441739,0.906608219 L0.447441739,2.28545753 C0.447441739,2.3788274 0.374085217,2.44918356 0.277598261,2.44918356 C0.183424348,2.44918356 0.107093913,2.37553973 0.107093913,2.28545753 L0.107093913,0.461457534 C0.107093913,0.325676712 0.226711304,0.206991781 0.362850435,0.206991781 C0.471893913,0.206991781 0.572346087,0.284252055 0.608693913,0.394717808 L1.09905913,1.82090959 L1.58446783,0.394389041 C1.62015478,0.284252055 1.7219287,0.206991781 1.83262435,0.206991781 C1.96909391,0.206991781 2.08805043,0.325676712 2.08805043,0.461457534 L2.08805043,2.28545753 C2.08805043,2.3788274 2.01502435,2.44918356 1.91853739,2.44918356 C1.82436348,2.44918356 1.74836348,2.37553973 1.74836348,2.28545753 L1.74836348,0.910553425 C1.67269391,1.13049863 1.55770261,1.47044384 1.46385913,1.74562192 C1.27121565,2.31406027 1.27055478,2.31537534 1.26758087,2.32096438 C1.23024174,2.40710137 1.17340696,2.4518137 1.09905913,2.4518137" id="Fill-46" fill="#004691" mask="url(#mask-8)"></path>
                </g>
            </g>
        </g>
    </g>
</svg>